<svg xmlns="http://www.w3.org/2000/svg" xmlns:svg="http://www.w3.org/2000/svg" xmlns:xlink="http://www.w3.org/1999/xlink" version="1.0" height="648.9502469301224pt" width="969.5pt" viewBox="411.5 468 977.5 654.9502469301224" ><defs><style type="text/css">
            @font-face {
                font-family: 'noto_regular';
                src: url('https://app.creately.com/diagram/assets/fonts/noto/noto-regular.woff') format('woff'),
                     url('https://app.creately.com/diagram/assets/fonts/noto/noto-regular.woff2') format('woff2');
                font-weight: normal;
                font-style: normal;
            }
        p {
            margin: 0;
        }
        </style></defs><defs><style>
            span{ display: inline-block; }
        </style></defs><g id="a96929owdy"><g transform="translate(655 495)"><rect x="0" y="0" width="574.9999819993973" height="624.9502469301224" fill="rgba(255,255,255,1)" stroke="#000000" stroke-width="1.5" stroke-linecap="round" stroke-linejoin="round"/></g><g transform="translate(919.9999909996986, 505) rotate(0, 22.5, 0)" width="45" height="18"><text text-decoration="none" x="0.5" fill="rgb(84, 84, 84)" font-size="10pt" font-family="noto_regular"  y="17">System</text><text text-decoration="none" x="44.5" fill="#4b4b4b" font-size="10pt" font-family="noto_regular"  y="17"></text></g><g transform="translate(919.9999909996986, 471) rotate(0, 22.5, 19)" width="45" height="19"><text text-decoration="none" x="2" fill="rgb(0, 0, 0)" font-size="9pt" font-family="Arial"  y="17">System</text><text text-decoration="none" x="43" fill="#4b4b4b" font-size="10pt" font-family="noto_regular"  y="17"></text></g></g><g id="mdq3zapfi9"><g transform="translate(425 570)"><ellipse cx="20.5" cy="10.125" rx="10.25" ry="10.125" fill="rgba(255,255,255,1)" stroke="#5e5ca7" stroke-width="1.5" stroke-linecap="round" stroke-linejoin="round"/><path d="M 20.5,20.25 L 20.5,48.6 L 41,81 M 20.5,48.6 L 0,81 M 2.0500000000000003,30.375 L 38.95,30.375" fill="none" stroke="#5e5ca7" stroke-width="1.5" stroke-linecap="round" stroke-linejoin="round"/><rect x="0" y="0" width="41" height="81" fill="rgba(255,255,255,0.01)" stroke="rgba(255,255,255,0.01)" stroke-width="1.5" stroke-linecap="round" stroke-linejoin="round"/></g><g transform="translate(426, 656) rotate(0, 19.5, 0)" width="39" height="19"><text text-decoration="none" x="1" fill="rgb(0, 0, 0)" font-size="9pt" font-family="Arial"  y="17">Owner</text><text text-decoration="none" x="38" fill="#4b4b4b" font-size="10pt" font-family="noto_regular"  y="17"></text></g></g><g id="1emragwngi"><g transform="translate(895 615)"><ellipse cx="45.5" cy="19.999999791383743" rx="45.5" ry="19.999999791383743" fill="rgba(68,141,122,1)" stroke="#00563e" stroke-width="2" stroke-linecap="round" stroke-linejoin="round"/></g><g transform="translate(900.5, 625.4999997913837) rotate(0, 40, 9.5)" width="80" height="19"><text text-decoration="none" x="3.5" fill="rgb(255, 255, 255)" font-size="9pt" font-family="Arial"  y="17">Add&#160;</text><text text-decoration="none" x="28.5" fill="rgb(255, 255, 255)" font-size="9pt" font-family="Arial"  y="17">property</text><text text-decoration="none" x="76.5" fill="#4b4b4b" font-size="10pt" font-family="noto_regular"  y="17"></text></g></g><g id="1ffv5jwzgd"><g transform="translate(425 780)"><ellipse cx="20.5" cy="10.125" rx="10.25" ry="10.125" fill="rgba(255,255,255,1)" stroke="#5e5ca7" stroke-width="1.5" stroke-linecap="round" stroke-linejoin="round"/><path d="M 20.5,20.25 L 20.5,48.6 L 41,81 M 20.5,48.6 L 0,81 M 2.0500000000000003,30.375 L 38.95,30.375" fill="none" stroke="#5e5ca7" stroke-width="1.5" stroke-linecap="round" stroke-linejoin="round"/><rect x="0" y="0" width="41" height="81" fill="rgba(255,255,255,0.01)" stroke="rgba(255,255,255,0.01)" stroke-width="1.5" stroke-linecap="round" stroke-linejoin="round"/></g><g transform="translate(416.5, 866) rotate(0, 29, 0)" width="58" height="19"><text text-decoration="none" x="1.5" fill="rgb(0, 0, 0)" font-size="9pt" font-family="Arial"  y="17">Customer</text><text text-decoration="none" x="56.5" fill="#4b4b4b" font-size="10pt" font-family="noto_regular"  y="17"></text></g></g><g id="ecjv3ozk9e"><g transform="translate(837.4000000000001 578.8) rotate(-3.0185883459281243e-15)"><ellipse cx="44.956003069877625" cy="21.158344954252243" rx="44.956003069877625" ry="21.158344954252243" fill="rgba(68,141,122,1)" stroke="#00563e" stroke-width="2" stroke-linecap="round" stroke-linejoin="round"/></g><g transform="translate(854.8560030698777, 590.4583449542522) rotate(0, 27.5, 9.5)" width="55" height="19"><text text-decoration="none" x="2" fill="rgb(255, 255, 255)" font-size="10pt" font-family="Lato"  y="17">Manage&#160;</text><text text-decoration="none" x="53" fill="#4b4b4b" font-size="10pt" font-family="noto_regular"  y="17"></text></g></g><g id="17c3e5wizu"><g transform="translate(780.0500000000002 634.85)"><ellipse cx="45.00000274181366" cy="20.00000160932541" rx="45.00000274181366" ry="20.00000160932541" fill="rgba(68,141,122,1)" stroke="#00563e" stroke-width="2" stroke-linecap="round" stroke-linejoin="round"/></g><g transform="translate(799.0500027418138, 637.8500016093254) rotate(0, 26, 17)" width="52" height="34"><text text-decoration="none" x="7.5" fill="rgb(255, 255, 255)" font-size="9pt" font-family="Arial"  y="13">Delete&#160;</text><text text-decoration="none" x="2" fill="rgb(255, 255, 255)" font-size="9pt" font-family="Arial"  y="35">property</text><text text-decoration="none" x="50" fill="#4b4b4b" font-size="10pt" font-family="noto_regular"  y="35"></text></g></g><g id="83l6ti59ei"><g transform="translate(815.0000000000001 755)"><ellipse cx="32.425000101327896" cy="20.000003427267075" rx="32.425000101327896" ry="20.000003427267075" fill="rgba(68,141,122,1)" stroke="#00563e" stroke-width="2" stroke-linecap="round" stroke-linejoin="round"/></g><g transform="translate(827.925000101328, 765.5000034272671) rotate(0, 19.5, 9.5)" width="39" height="19"><text text-decoration="none" x="1.5" fill="rgb(255, 255, 255)" font-size="10pt" font-family="Lato"  y="17">Log&#160;</text><text text-decoration="none" x="26.5" fill="rgb(255, 255, 255)" font-size="10pt" font-family="Lato"  y="17">in</text><text text-decoration="none" x="37.5" fill="#4b4b4b" font-size="10pt" font-family="noto_regular"  y="17"></text></g></g><g id="15xb48l6ps"><g transform="translate(835 885)"><ellipse cx="37.00000050663948" cy="20.000003427267075" rx="37.00000050663948" ry="20.000003427267075" fill="rgba(68,141,122,1)" stroke="#00563e" stroke-width="2" stroke-linecap="round" stroke-linejoin="round"/></g><g transform="translate(844.5000005066395, 887.5000034272671) rotate(0, 27.5, 17.5)" width="55" height="35"><text text-decoration="none" x="8" fill="rgb(255, 255, 255)" font-size="10pt" font-family="Lato"  y="14">search&#160;</text><text text-decoration="none" x="1" fill="rgb(255, 255, 255)" font-size="10pt" font-family="Lato"  y="36">property</text><text text-decoration="none" x="54" fill="#4b4b4b" font-size="10pt" font-family="noto_regular"  y="36"></text></g></g><g id="9hd7mcix69"><g transform="translate(884.9500000000002 975)"><ellipse cx="45.5" cy="19.999999791383743" rx="45.5" ry="19.999999791383743" fill="rgba(68,141,122,1)" stroke="#00563e" stroke-width="2" stroke-linecap="round" stroke-linejoin="round"/></g><g transform="translate(885.4500000000002, 985.4999997913837) rotate(0, 45, 9.5)" width="90" height="19"><text text-decoration="none" x="3.5" fill="rgb(255, 255, 255)" font-size="10pt" font-family="Lato"  y="17">view&#160;</text><text text-decoration="none" x="33.5" fill="rgb(255, 255, 255)" font-size="10pt" font-family="Lato"  y="17">property</text><text text-decoration="none" x="86.5" fill="#4b4b4b" font-size="10pt" font-family="noto_regular"  y="17"></text></g></g><g id="6gif4pevab"><g transform="translate(1010 650)"><ellipse cx="45.5" cy="19.999999791383743" rx="45.5" ry="19.999999791383743" fill="rgba(68,141,122,1)" stroke="#00563e" stroke-width="2" stroke-linecap="round" stroke-linejoin="round"/></g><g transform="translate(1031.5, 652.4999997913837) rotate(0, 24, 17.5)" width="48" height="35"><text text-decoration="none" x="2" fill="rgb(255, 255, 255)" font-size="10pt" font-family="Lato"  y="14">Update&#160;</text><text text-decoration="none" x="3" fill="rgb(255, 255, 255)" font-size="10pt" font-family="Lato"  y="36">details&#160;</text><text text-decoration="none" x="45" fill="#4b4b4b" font-size="10pt" font-family="noto_regular"  y="36"></text></g></g><g id="3rq19vnsb2"><g transform="translate(870.0500000000001 849.85)"><ellipse cx="45.5" cy="17.500002771615982" rx="45.5" ry="17.500002771615982" fill="rgba(68,141,122,1)" stroke="#00563e" stroke-width="2" stroke-linecap="round" stroke-linejoin="round"/></g><g transform="translate(903.5500000000001, 857.850002771616) rotate(0, 12, 9.5)" width="24" height="19"><text text-decoration="none" x="1" fill="rgb(255, 255, 255)" font-size="10pt" font-family="Lato"  y="17">Join</text><text text-decoration="none" x="23" fill="#4b4b4b" font-size="10pt" font-family="noto_regular"  y="17"></text></g></g><g id="6xi1xsp7p6"><g transform="translate(870.0500000000001 709.85)"><ellipse cx="47.500005304813385" cy="24.999999284744263" rx="47.500005304813385" ry="24.999999284744263" fill="rgba(68,141,122,1)" stroke="#00563e" stroke-width="2" stroke-linecap="round" stroke-linejoin="round"/></g><g transform="translate(886.5500053048135, 717.3499992847443) rotate(0, 31, 17.5)" width="62" height="35"><text text-decoration="none" x="2" fill="rgb(255, 255, 255)" font-size="10pt" font-family="Lato"  y="14">control&#160;</text><text text-decoration="none" x="48" fill="rgb(255, 255, 255)" font-size="10pt" font-family="Lato"  y="14">of&#160;</text><text text-decoration="none" x="3" fill="rgb(255, 255, 255)" font-size="10pt" font-family="Lato"  y="36">property&#160;</text><text text-decoration="none" x="59" fill="#4b4b4b" font-size="10pt" font-family="noto_regular"  y="36"></text></g></g><g id="1vlz9cuohe"><mask id="e8a88" x="907.0500000000001" y="642" width="45.94999999999993" height="80.85000000000002" maskUnits="userSpaceOnUse"><rect x="907.0500000000001" y="642" width="45.94999999999993" height="80.85000000000002" fill="white" /><rect x="906.0250000000001" y="669.925" width="48" height="25" fill="black" /></mask><g mask="url(#e8a88)"><path d="M 920.0500000000001,709.85 L 940,655" fill="none" stroke="#5e5ca7" stroke-width="1.5" stroke-linecap="round" stroke-linejoin="round"/><path d="M 940,655 L 931.6240547284228,661.206481091345 L 942.4313914281365,665.1373173203201 Z" fill="rgb(94,92,167)" stroke="#5e5ca7" stroke-width="1.5" stroke-linecap="round" stroke-linejoin="round"/></g><g transform="translate(909.0250000000001, 672.925)" width="42" height="19"><text text-decoration="none" x="2" fill="rgb(75, 75, 75)" font-size="9pt" font-family="Lato"  y="17">extend</text><text text-decoration="none" x="40" fill="#4b4b4b" font-size="10pt" font-family="noto_regular"  y="17"></text></g></g><g id="1ve1bad27p"><mask id="11da2" x="837.0500000000002" y="656.85" width="95.99999999999989" height="66" maskUnits="userSpaceOnUse"><rect x="837.0500000000002" y="656.85" width="95.99999999999989" height="66" fill="white" /><rect x="861.0500000000002" y="677.35" width="48" height="25" fill="black" /></mask><g mask="url(#11da2)"><path d="M 920.0500000000001,709.85 L 850.0500000000002,669.85" fill="none" stroke="#5e5ca7" stroke-width="1.5" stroke-linecap="round" stroke-linejoin="round"/><path d="M 850.0500000000002,669.85 L 854.747141470748,679.1566497051011 L 860.4527392618517,669.1718535706699 Z" fill="rgb(94,92,167)" stroke="#5e5ca7" stroke-width="1.5" stroke-linecap="round" stroke-linejoin="round"/></g><g transform="translate(864.0500000000002, 680.35)" width="42" height="19"><text text-decoration="none" x="2" fill="rgb(75, 75, 75)" font-size="9pt" font-family="Lato"  y="17">extend</text><text text-decoration="none" x="40" fill="#4b4b4b" font-size="10pt" font-family="noto_regular"  y="17"></text></g></g><g id="17y7bb78pc"><mask id="095e1" x="907.0500000000001" y="667" width="120.94999999999993" height="55.85000000000002" maskUnits="userSpaceOnUse"><rect x="907.0500000000001" y="667" width="120.94999999999993" height="55.85000000000002" fill="white" /><rect x="943.5250000000001" y="682.425" width="48" height="25" fill="black" /></mask><g mask="url(#095e1)"><path d="M 920.0500000000001,709.85 L 1015,680" fill="none" stroke="#5e5ca7" stroke-width="1.5" stroke-linecap="round" stroke-linejoin="round"/><path d="M 1015,680 L 1004.9801630973062,677.1225471032361 L 1008.4290702731687,688.0931915370096 Z" fill="rgb(94,92,167)" stroke="#5e5ca7" stroke-width="1.5" stroke-linecap="round" stroke-linejoin="round"/></g><g transform="translate(946.5250000000001, 685.425)" width="42" height="19"><text text-decoration="none" x="2" fill="rgb(75, 75, 75)" font-size="9pt" font-family="Lato"  y="17">extend</text><text text-decoration="none" x="40" fill="#4b4b4b" font-size="10pt" font-family="noto_regular"  y="17"></text></g></g><g id="1jpgubk3eo"><mask id="7e351" x="914.4000000000001" y="585.8" width="443.5999999999999" height="42.200000000000045" maskUnits="userSpaceOnUse"><rect x="914.4000000000001" y="585.8" width="443.5999999999999" height="42.200000000000045" fill="white" /><rect x="1110.7" y="594.4" width="51" height="25" fill="black" /></mask><g mask="url(#7e351)"><path d="M 1345,615 L 927.4000000000001,598.8" fill="none" stroke="#5e5ca7" stroke-width="1.5" stroke-linecap="round" stroke-linejoin="round"/><path d="M 927.4000000000001,598.8 L 935.8662237932766,604.8827560703876 L 936.3120091767369,593.3913995189663 Z" fill="rgb(94,92,167)" stroke="#5e5ca7" stroke-width="1.5" stroke-linecap="round" stroke-linejoin="round"/></g><g transform="translate(1113.7, 597.4)" width="45" height="19"><text text-decoration="none" x="1.5" fill="rgb(75, 75, 75)" font-size="10pt" font-family="Lato"  y="17">extend</text><text text-decoration="none" x="43.5" fill="#4b4b4b" font-size="10pt" font-family="noto_regular"  y="17"></text></g></g><g id="689wjor95r"><mask id="3ce97" x="452" y="587" width="436.05000000000007" height="285.85" maskUnits="userSpaceOnUse"><rect x="452" y="587" width="436.05000000000007" height="285.85" fill="white" /><rect x="662.3308119122167" y="728.7086001106927" width="51" height="25" fill="black" /></mask><g mask="url(#3ce97)"><path d="M 465,600 L 875.0500000000001,859.85" fill="none" stroke="#5e5ca7" stroke-width="1.5" stroke-linecap="round" stroke-linejoin="round"/><path d="M 875.0500000000001,859.85 L 870.7828069596984,850.3385369008507 L 864.6271439353955,860.05233187147 Z" fill="rgb(94,92,167)" stroke="#5e5ca7" stroke-width="1.5" stroke-linecap="round" stroke-linejoin="round"/></g><g transform="translate(665.3308119122167, 731.7086001106927)" width="45" height="19"><text text-decoration="none" x="1.5" fill="rgb(75, 75, 75)" font-size="10pt" font-family="Lato"  y="17">extend</text><text text-decoration="none" x="43.5" fill="#4b4b4b" font-size="10pt" font-family="noto_regular"  y="17"></text></g></g><g id="roerbdilrv"><mask id="face4" x="452" y="587" width="450.95000000000016" height="411" maskUnits="userSpaceOnUse"><rect x="452" y="587" width="450.95000000000016" height="411" fill="white" /><rect x="665.5160412265985" y="792.2680335856934" width="51" height="25" fill="black" /></mask><g mask="url(#face4)"><path d="M 465,600 L 889.9500000000002,985" fill="none" stroke="#5e5ca7" stroke-width="1.5" stroke-linecap="round" stroke-linejoin="round"/><path d="M 889.9500000000002,985 L 887.3664240244292,974.9003959529033 L 879.645172312119,983.4228528753611 Z" fill="rgb(94,92,167)" stroke="#5e5ca7" stroke-width="1.5" stroke-linecap="round" stroke-linejoin="round"/></g><g transform="translate(668.5160412265985, 795.2680335856934)" width="45" height="19"><text text-decoration="none" x="1.5" fill="rgb(75, 75, 75)" font-size="10pt" font-family="Lato"  y="17">extend</text><text text-decoration="none" x="43.5" fill="#4b4b4b" font-size="10pt" font-family="noto_regular"  y="17"></text></g></g><g id="2ihccaw9sg"><g transform="translate(985.0000000000001 770)"><ellipse cx="35.00000062584877" cy="20.000003427267075" rx="35.00000062584877" ry="20.000003427267075" fill="rgba(68,141,122,1)" stroke="#00563e" stroke-width="2" stroke-linecap="round" stroke-linejoin="round"/></g><g transform="translate(993.5000006258488, 780.5000034272671) rotate(0, 26.5, 9.5)" width="53" height="19"><text text-decoration="none" x="2.5" fill="rgb(255, 255, 255)" font-size="10pt" font-family="Lato"  y="17">Register</text><text text-decoration="none" x="50.5" fill="#4b4b4b" font-size="10pt" font-family="noto_regular"  y="17"></text></g></g><g id="9s74hdp7g5"><mask id="c3da1" x="832.0000000000001" y="782" width="96.04999999999995" height="80.85000000000002" maskUnits="userSpaceOnUse"><rect x="832.0000000000001" y="782" width="96.04999999999995" height="80.85000000000002" fill="white" /><rect x="854.5250000000001" y="809.9250000000001" width="51" height="25" fill="black" /></mask><g mask="url(#c3da1)"><path d="M 915.0500000000001,849.85 L 845.0000000000001,795" fill="none" stroke="#5e5ca7" stroke-width="1.5" stroke-linecap="round" stroke-linejoin="round"/><path d="M 845.0000000000001,795 L 848.301623652663,804.8881822387058 L 855.3914338673314,795.8336479536096 Z" fill="rgb(94,92,167)" stroke="#5e5ca7" stroke-width="1.5" stroke-linecap="round" stroke-linejoin="round"/></g><g transform="translate(857.5250000000001, 812.9250000000001)" width="45" height="19"><text text-decoration="none" x="1.5" fill="rgb(75, 75, 75)" font-size="10pt" font-family="Lato"  y="17">extend</text><text text-decoration="none" x="43.5" fill="#4b4b4b" font-size="10pt" font-family="noto_regular"  y="17"></text></g></g><g id="2gfp3ojsk1"><mask id="88836" x="902.0500000000001" y="792" width="115.95000000000005" height="70.85000000000002" maskUnits="userSpaceOnUse"><rect x="902.0500000000001" y="792" width="115.95000000000005" height="70.85000000000002" fill="white" /><rect x="934.5250000000001" y="814.925" width="51" height="25" fill="black" /></mask><g mask="url(#88836)"><path d="M 915.0500000000001,849.85 L 1005.0000000000001,805" fill="none" stroke="#5e5ca7" stroke-width="1.5" stroke-linecap="round" stroke-linejoin="round"/><path d="M 1005.0000000000001,805 L 994.6522955214225,803.7343465112035 L 999.7838071903543,814.0259735930413 Z" fill="rgb(94,92,167)" stroke="#5e5ca7" stroke-width="1.5" stroke-linecap="round" stroke-linejoin="round"/></g><g transform="translate(937.5250000000001, 817.925)" width="45" height="19"><text text-decoration="none" x="1.5" fill="rgb(75, 75, 75)" font-size="10pt" font-family="Lato"  y="17">extend</text><text text-decoration="none" x="43.5" fill="#4b4b4b" font-size="10pt" font-family="noto_regular"  y="17"></text></g></g><g id="1myelocla9"><mask id="1adb5" x="857" y="912" width="85.95000000000016" height="76" maskUnits="userSpaceOnUse"><rect x="857" y="912" width="85.95000000000016" height="76" fill="white" /><rect x="875.9750000000001" y="937.5" width="48" height="25" fill="black" /></mask><g mask="url(#1adb5)"><path d="M 929.9500000000002,975 L 870,925" fill="none" stroke="#5e5ca7" stroke-width="1.5" stroke-linecap="round" stroke-linejoin="round"/><path d="M 870,925 L 872.9950306352712,934.9853221391934 L 880.3607731088111,926.153796913419 Z" fill="rgb(94,92,167)" stroke="#5e5ca7" stroke-width="1.5" stroke-linecap="round" stroke-linejoin="round"/></g><g transform="translate(878.9750000000001, 940.5)" width="42" height="19"><text text-decoration="none" x="2" fill="rgb(75, 75, 75)" font-size="9pt" font-family="Lato"  y="17">extend</text><text text-decoration="none" x="40" fill="#4b4b4b" font-size="10pt" font-family="noto_regular"  y="17"></text></g></g><g id="1aqvoecalm"><g transform="translate(784.9000000000001 1060)"><ellipse cx="45.5" cy="20.000003427267075" rx="45.5" ry="20.000003427267075" fill="rgba(68,141,122,1)" stroke="#00563e" stroke-width="2" stroke-linecap="round" stroke-linejoin="round"/></g><g transform="translate(792.4000000000001, 1070.500003427267) rotate(0, 38, 9.5)" width="76" height="19"><text text-decoration="none" x="3.5" fill="rgb(255, 255, 255)" font-size="10pt" font-family="Lato"  y="17">Buy&#160;</text><text text-decoration="none" x="29.5" fill="rgb(255, 255, 255)" font-size="10pt" font-family="Lato"  y="17">&#x26;&#160;</text><text text-decoration="none" x="41.5" fill="rgb(255, 255, 255)" font-size="10pt" font-family="Lato"  y="17">Rent&#160;</text><text text-decoration="none" x="72.5" fill="#4b4b4b" font-size="10pt" font-family="noto_regular"  y="17"></text></g></g><g id="13zz7rjyib"><mask id="35092" x="452" y="797" width="345.9000000000001" height="296" maskUnits="userSpaceOnUse"><rect x="452" y="797" width="345.9000000000001" height="296" fill="white" /><rect x="599.45" y="932.5" width="51" height="25" fill="black" /></mask><g mask="url(#35092)"><path d="M 465,810 L 784.9000000000001,1080" fill="none" stroke="#5e5ca7" stroke-width="1.5" stroke-linecap="round" stroke-linejoin="round"/><path d="M 784.9000000000001,1080 L 781.963535879733,1069.9972981050087 L 774.5461661689228,1078.7855076253352 Z" fill="rgb(94,92,167)" stroke="#5e5ca7" stroke-width="1.5" stroke-linecap="round" stroke-linejoin="round"/></g><g transform="translate(602.45, 935.5)" width="45" height="19"><text text-decoration="none" x="1.5" fill="rgb(75, 75, 75)" font-size="10pt" font-family="Lato"  y="17">extend</text><text text-decoration="none" x="43.5" fill="#4b4b4b" font-size="10pt" font-family="noto_regular"  y="17"></text></g></g><g id="27w8tu1gql"><g transform="translate(765 505)"><ellipse cx="52.49999958276749" cy="25.000002920627594" rx="52.49999958276749" ry="25.000002920627594" fill="rgba(68,141,122,1)" stroke="#00563e" stroke-width="2" stroke-linecap="round" stroke-linejoin="round"/></g><g transform="translate(771.4999995827675, 512.5000029206276) rotate(0, 46, 17.5)" width="92" height="35"><text text-decoration="none" x="3" fill="rgb(255, 255, 255)" font-size="10pt" font-family="Lato"  y="14">Add&#160;</text><text text-decoration="none" x="30" fill="rgb(255, 255, 255)" font-size="10pt" font-family="Lato"  y="14">Customer&#160;</text><text text-decoration="none" x="21.5" fill="rgb(255, 255, 255)" font-size="10pt" font-family="Lato"  y="36">&#x26;Owner</text><text text-decoration="none" x="70.5" fill="#4b4b4b" font-size="10pt" font-family="noto_regular"  y="36"></text></g></g><g id="yc09x6gufp"><g transform="translate(961.5500000000002 504.95000000000005)"><ellipse cx="61.699999034404755" cy="27.525003910064697" rx="61.699999034404755" ry="27.525003910064697" fill="rgba(68,141,122,1)" stroke="#00563e" stroke-width="2" stroke-linecap="round" stroke-linejoin="round"/></g><g transform="translate(968.2499990344049, 514.9750039100647) rotate(0, 55, 17.5)" width="110" height="35"><text text-decoration="none" x="5" fill="rgb(255, 255, 255)" font-size="10pt" font-family="Lato"  y="14">Delete&#160;</text><text text-decoration="none" x="46" fill="rgb(255, 255, 255)" font-size="10pt" font-family="Lato"  y="14">Customer&#160;</text><text text-decoration="none" x="30.5" fill="rgb(255, 255, 255)" font-size="10pt" font-family="Lato"  y="36">&#x26;Owner</text><text text-decoration="none" x="79.5" fill="#4b4b4b" font-size="10pt" font-family="noto_regular"  y="36"></text></g></g><g id="1pycchopvo"><mask id="e7eca" x="802" y="542" width="93.40000000000009" height="49.799999999999955" maskUnits="userSpaceOnUse"><rect x="802" y="542" width="93.40000000000009" height="49.799999999999955" fill="white" /><rect x="824.7" y="554.4" width="48" height="25" fill="black" /></mask><g mask="url(#e7eca)"><path d="M 882.4000000000001,578.8 L 815,555" fill="none" stroke="#5e5ca7" stroke-width="1.5" stroke-linecap="round" stroke-linejoin="round"/><path d="M 815,555 L 821.2849094446036,563.317257961781 L 825.1140238796819,552.4734633010972 Z" fill="rgb(94,92,167)" stroke="#5e5ca7" stroke-width="1.5" stroke-linecap="round" stroke-linejoin="round"/></g><g transform="translate(827.7, 557.4)" width="42" height="19"><text text-decoration="none" x="2" fill="rgb(75, 75, 75)" font-size="9pt" font-family="Lato"  y="17">extend</text><text text-decoration="none" x="40" fill="#4b4b4b" font-size="10pt" font-family="noto_regular"  y="17"></text></g></g><g id="1qfpr0ap8g"><mask id="7d1ab" x="869.4000000000001" y="541.95" width="135.1500000000001" height="49.84999999999991" maskUnits="userSpaceOnUse"><rect x="869.4000000000001" y="541.95" width="135.1500000000001" height="49.84999999999991" fill="white" /><rect x="911.4750000000001" y="554.375" width="51" height="25" fill="black" /></mask><g mask="url(#7d1ab)"><path d="M 882.4000000000001,578.8 L 991.5500000000002,554.95" fill="none" stroke="#5e5ca7" stroke-width="1.5" stroke-linecap="round" stroke-linejoin="round"/><path d="M 991.5500000000002,554.95 L 981.8273334869574,551.1888003767635 L 984.2822382783784,562.4237210469356 Z" fill="rgb(94,92,167)" stroke="#5e5ca7" stroke-width="1.5" stroke-linecap="round" stroke-linejoin="round"/></g><g transform="translate(914.4750000000001, 557.375)" width="45" height="19"><text text-decoration="none" x="1.5" fill="rgb(75, 75, 75)" font-size="10pt" font-family="Lato"  y="17">extend</text><text text-decoration="none" x="43.5" fill="#4b4b4b" font-size="10pt" font-family="noto_regular"  y="17"></text></g></g><g id="47ngzaryfs"><g transform="translate(1345 585)"><ellipse cx="20.5" cy="10.125" rx="10.25" ry="10.125" fill="rgba(255,255,255,1)" stroke="#5e5ca7" stroke-width="1.5" stroke-linecap="round" stroke-linejoin="round"/><path d="M 20.5,20.25 L 20.5,48.6 L 41,81 M 20.5,48.6 L 0,81 M 2.0500000000000003,30.375 L 38.95,30.375" fill="none" stroke="#5e5ca7" stroke-width="1.5" stroke-linecap="round" stroke-linejoin="round"/><rect x="0" y="0" width="41" height="81" fill="rgba(255,255,255,0.01)" stroke="rgba(255,255,255,0.01)" stroke-width="1.5" stroke-linecap="round" stroke-linejoin="round"/></g><g transform="translate(1346, 671) rotate(0, 19.5, 0)" width="39" height="19"><text text-decoration="none" x="1.5" fill="rgb(0, 0, 0)" font-size="9pt" font-family="Arial"  y="17">Admin</text><text text-decoration="none" x="37.5" fill="#4b4b4b" font-size="10pt" font-family="noto_regular"  y="17"></text></g></g><g id="2p5ne83p13"><mask id="7031e" x="947.0500000000001" y="602" width="410.94999999999993" height="280.85" maskUnits="userSpaceOnUse"><rect x="947.0500000000001" y="602" width="410.94999999999993" height="280.85" fill="white" /><rect x="1127.025" y="729.925" width="51" height="25" fill="black" /></mask><g mask="url(#7031e)"><path d="M 1345,615 L 960.0500000000001,869.85" fill="none" stroke="#5e5ca7" stroke-width="1.5" stroke-linecap="round" stroke-linejoin="round"/><path d="M 960.0500000000001,869.85 L 970.4748181956909,869.8443152421472 L 964.1265529232719,860.2552835897333 Z" fill="rgb(94,92,167)" stroke="#5e5ca7" stroke-width="1.5" stroke-linecap="round" stroke-linejoin="round"/></g><g transform="translate(1130.025, 732.925)" width="45" height="19"><text text-decoration="none" x="1.5" fill="rgb(75, 75, 75)" font-size="10pt" font-family="Lato"  y="17">extend</text><text text-decoration="none" x="43.5" fill="#4b4b4b" font-size="10pt" font-family="noto_regular"  y="17"></text></g></g><g id="2kecxbgva0"><g transform="translate(965 870) rotate(2.7140733619182728e-15)"><ellipse cx="37.50000047683716" cy="25.000006556510925" rx="37.50000047683716" ry="25.000006556510925" fill="rgba(68,141,122,1)" stroke="#00563e" stroke-width="2" stroke-linecap="round" stroke-linejoin="round"/></g><g transform="translate(975.0000004768372, 877.5000065565109) rotate(0, 27.5, 17.5)" width="55" height="35"><text text-decoration="none" x="6.5" fill="rgb(255, 255, 255)" font-size="10pt" font-family="Lato"  y="14">display&#160;</text><text text-decoration="none" x="1" fill="rgb(255, 255, 255)" font-size="10pt" font-family="Lato"  y="36">property</text><text text-decoration="none" x="54" fill="#4b4b4b" font-size="10pt" font-family="noto_regular"  y="36"></text></g></g><g id="1rundhei7o"><mask id="62408" x="941.9500000000002" y="902" width="56.04999999999984" height="91" maskUnits="userSpaceOnUse"><rect x="941.9500000000002" y="902" width="56.04999999999984" height="91" fill="white" /><rect x="945.9750000000001" y="935" width="48" height="25" fill="black" /></mask><g mask="url(#62408)"><path d="M 954.9500000000002,980 L 985,915" fill="none" stroke="#5e5ca7" stroke-width="1.5" stroke-linecap="round" stroke-linejoin="round"/><path d="M 985,915 L 976.1317734414857,920.4800934696901 L 986.570249101375,925.3058810632235 Z" fill="rgb(94,92,167)" stroke="#5e5ca7" stroke-width="1.5" stroke-linecap="round" stroke-linejoin="round"/></g><g transform="translate(948.9750000000001, 938)" width="42" height="19"><text text-decoration="none" x="2" fill="rgb(75, 75, 75)" font-size="9pt" font-family="Lato"  y="17">extend</text><text text-decoration="none" x="40" fill="#4b4b4b" font-size="10pt" font-family="noto_regular"  y="17"></text></g></g><g id="1gdp99jilo"><mask id="8fd0e" x="452" y="587" width="431.05000000000007" height="160.85000000000002" maskUnits="userSpaceOnUse"><rect x="452" y="587" width="431.05000000000007" height="160.85000000000002" fill="white" /><rect x="665.7554619939804" y="662.8253895812572" width="51" height="25" fill="black" /></mask><g mask="url(#8fd0e)"><path d="M 465,600 L 870.0500000000001,734.85" fill="none" stroke="#5e5ca7" stroke-width="1.5" stroke-linecap="round" stroke-linejoin="round"/><path d="M 870.0500000000001,734.85 L 863.6158513218764,726.6476468304835 L 859.9832729499522,737.5588509057369 Z" fill="rgb(94,92,167)" stroke="#5e5ca7" stroke-width="1.5" stroke-linecap="round" stroke-linejoin="round"/></g><g transform="translate(668.7554619939804, 665.8253895812572)" width="45" height="19"><text text-decoration="none" x="1.5" fill="rgb(75, 75, 75)" font-size="10pt" font-family="Lato"  y="17">extend</text><text text-decoration="none" x="43.5" fill="#4b4b4b" font-size="10pt" font-family="noto_regular"  y="17"></text></g></g><g id="1jsembkr19"><mask id="736dc" x="961.9500000000002" y="602" width="396.04999999999984" height="406" maskUnits="userSpaceOnUse"><rect x="961.9500000000002" y="602" width="396.04999999999984" height="406" fill="white" /><rect x="1134.4750000000001" y="792.5" width="51" height="25" fill="black" /></mask><g mask="url(#736dc)"><path d="M 1345,615 L 974.9500000000002,995" fill="none" stroke="#5e5ca7" stroke-width="1.5" stroke-linecap="round" stroke-linejoin="round"/><path d="M 974.9500000000002,995 L 985.1360911975357,992.7817996381825 L 976.8972143918036,984.7586513172321 Z" fill="rgb(94,92,167)" stroke="#5e5ca7" stroke-width="1.5" stroke-linecap="round" stroke-linejoin="round"/></g><g transform="translate(1137.4750000000001, 795.5)" width="45" height="19"><text text-decoration="none" x="1.5" fill="rgb(75, 75, 75)" font-size="10pt" font-family="Lato"  y="17">extend</text><text text-decoration="none" x="43.5" fill="#4b4b4b" font-size="10pt" font-family="noto_regular"  y="17"></text></g></g><g id="2m2qmmd1ae"><mask id="0b4a5" x="452" y="797" width="431.05000000000007" height="85.85000000000002" maskUnits="userSpaceOnUse"><rect x="452" y="797" width="431.05000000000007" height="85.85000000000002" fill="white" /><rect x="600.4258820696123" y="816.1514052893525" width="51" height="25" fill="black" /></mask><g mask="url(#0b4a5)"><path d="M 465,810 L 692.35,836.35 L 707.5,840 L 725,842.5 L 742.5,842.5 L 870.0500000000001,869.85" fill="none" stroke="#5e5ca7" stroke-width="1.5" stroke-linecap="round" stroke-linejoin="round"/><path d="M 870.0500000000001,869.85 L 862.7003869325483,862.4567561592748 L 860.3693368423999,873.7180263130905 Z" fill="rgb(94,92,167)" stroke="#5e5ca7" stroke-width="1.5" stroke-linecap="round" stroke-linejoin="round"/></g><g transform="translate(603.4258820696123, 819.1514052893525)" width="45" height="19"><text text-decoration="none" x="1.5" fill="rgb(75, 75, 75)" font-size="10pt" font-family="Lato"  y="17">extend</text><text text-decoration="none" x="43.5" fill="#4b4b4b" font-size="10pt" font-family="noto_regular"  y="17"></text></g></g><g id="89ja520043"><mask id="f0b95" x="452" y="797" width="445.95000000000016" height="211" maskUnits="userSpaceOnUse"><rect x="452" y="797" width="445.95000000000016" height="211" fill="white" /><rect x="673.3777881973224" y="900.3398784981134" width="51" height="25" fill="black" /></mask><g mask="url(#f0b95)"><path d="M 465,810 L 817.5,965 L 830,970 L 884.9500000000002,995" fill="none" stroke="#5e5ca7" stroke-width="1.5" stroke-linecap="round" stroke-linejoin="round"/><path d="M 884.9500000000002,995 L 879.0147434966073,986.429725968873 L 874.7400659060085,997.1057332513935 Z" fill="rgb(94,92,167)" stroke="#5e5ca7" stroke-width="1.5" stroke-linecap="round" stroke-linejoin="round"/></g><g transform="translate(676.3777881973224, 903.3398784981134)" width="45" height="19"><text text-decoration="none" x="1.5" fill="rgb(75, 75, 75)" font-size="10pt" font-family="Lato"  y="17">extend</text><text text-decoration="none" x="43.5" fill="#4b4b4b" font-size="10pt" font-family="noto_regular"  y="17"></text></g></g><g id="aebxkx44iz"><mask id="047d3" x="952.0500000000001" y="602" width="405.94999999999993" height="145.85000000000002" maskUnits="userSpaceOnUse"><rect x="952.0500000000001" y="602" width="405.94999999999993" height="145.85000000000002" fill="white" /><rect x="1129.525" y="662.425" width="51" height="25" fill="black" /></mask><g mask="url(#047d3)"><path d="M 1345,615 L 965.0500000000001,734.85" fill="none" stroke="#5e5ca7" stroke-width="1.5" stroke-linecap="round" stroke-linejoin="round"/><path d="M 965.0500000000001,734.85 L 975.0726078287072,737.717786435845 L 971.6131199873441,726.7504739174811 Z" fill="rgb(94,92,167)" stroke="#5e5ca7" stroke-width="1.5" stroke-linecap="round" stroke-linejoin="round"/></g><g transform="translate(1132.525, 665.425)" width="45" height="19"><text text-decoration="none" x="1.5" fill="rgb(75, 75, 75)" font-size="10pt" font-family="Lato"  y="17">extend</text><text text-decoration="none" x="43.5" fill="#4b4b4b" font-size="10pt" font-family="noto_regular"  y="17"></text></g></g><g id="iqh4at6zw0"><mask id="fccba" x="864.15" y="765.5999999999999" width="134.85000000000002" height="38.40000000000009" maskUnits="userSpaceOnUse"><rect x="864.15" y="765.5999999999999" width="134.85000000000002" height="38.40000000000009" fill="white" /><rect x="905.075" y="772.3" width="53" height="25" fill="black" /></mask><g mask="url(#fccba)"><path d="M 985,790 L 878.15,779.5999999999999" fill="none" stroke="#003494" stroke-width="2" stroke-linecap="round" stroke-linejoin="round" stroke-dasharray="5 5 2 5"/><path d="M 878.15,779.5999999999999 L 886.2477219959386,786.1653457796348 L 887.3617834758596,774.7194352864082 Z" fill="rgb(0,52,148)" stroke="#003494" stroke-width="2" stroke-linecap="round" stroke-linejoin="round"/></g><g transform="translate(908.075, 775.3)" width="47" height="19"><text text-decoration="none" x="2" fill="rgb(20, 56, 114)" font-size="10pt" font-family="Lato"  y="17">include</text><text text-decoration="none" x="45" fill="#4b4b4b" font-size="10pt" font-family="noto_regular"  y="17"></text></g></g></svg>